<svg xmlns="http://www.w3.org/2000/svg" version="1.1" xmlns:xlink="http://www.w3.org/1999/xlink" xmlns:svgjs="http://svgjs.dev/svgjs" width="512" height="512"><svg width="512" height="512" viewBox="0 0 512 512" fill="none" xmlns="http://www.w3.org/2000/svg">
<rect width="512" height="512" fill="black"></rect>
<g style="mix-blend-mode:difference">
<path d="M260.589 126.103C258.187 121.966 251.38 121.966 249.045 126.103L178.712 247.885C176.243 247.885 173.84 249.286 172.706 251.689C171.772 253.69 172.039 255.959 173.04 257.761L102.973 379.143C101.772 381.211 101.772 383.747 102.973 385.816C104.174 387.884 106.376 389.152 108.779 389.152H400.922C403.324 389.152 405.526 387.884 406.728 385.816C407.929 383.747 407.929 381.211 406.728 379.143L260.589 126.103ZM192.458 250.821L289.35 202.709L350.007 307.808L183.316 266.636L192.391 250.888L192.458 250.821ZM254.784 142.785L282.677 191.098L204.469 229.935L254.784 142.785ZM120.256 375.806L176.376 278.581L359.283 323.757L389.311 375.739H120.256V375.806Z" fill="white"></path>
<path d="M110.647 229.668L116.052 232.27L121.524 234.873C122.458 235.34 123.392 235.54 124.393 235.54C126.929 235.54 129.265 234.139 130.466 231.736C132.067 228.4 130.599 224.396 127.263 222.861L121.791 220.259L116.386 217.723C113.049 216.122 109.112 217.59 107.511 220.926C105.909 224.263 107.377 228.2 110.714 229.801L110.647 229.668Z" fill="white"></path>
<path d="M94.5652 207.313L89.1601 204.711L83.7549 202.175C80.4184 200.573 76.4147 202.042 74.8799 205.378C73.2783 208.715 74.7464 212.718 78.0829 214.253L83.5547 216.856L88.9599 219.391C89.8941 219.858 90.8283 220.059 91.8293 220.059C94.365 220.059 96.7005 218.657 97.8349 216.255C99.4365 212.919 97.9684 208.981 94.6319 207.38L94.5652 207.313Z" fill="white"></path>
<path d="M61.9343 191.899L57.1297 189.63C57.1297 189.63 56.7961 189.496 56.5959 189.363C56.5959 189.363 56.5959 189.363 56.5291 189.363L53.5263 187.962C50.1898 186.36 46.2527 187.828 44.6512 191.098C43.0497 194.434 44.5178 198.438 47.7875 199.973L50.7904 201.374L56.2622 203.977C57.1964 204.444 58.1307 204.644 59.1316 204.644C61.6674 204.644 64.0029 203.243 65.204 200.84C66.8056 197.504 65.3375 193.5 62.001 191.965L61.9343 191.899Z" fill="white"></path>
<path d="M143.278 245.149L154.088 250.354C155.022 250.821 155.957 251.021 156.958 251.021C159.493 251.021 161.829 249.62 162.963 247.218C164.565 243.881 163.097 239.944 159.76 238.343L148.95 233.138C145.614 231.536 141.676 233.004 140.075 236.341C138.473 239.677 139.941 243.614 143.278 245.216V245.149Z" fill="white"></path>
<path d="M425.545 200.573H453.372C454.373 200.573 455.307 200.307 456.174 199.906C456.241 199.906 456.308 200.04 456.375 200.04C457.175 200.373 458.043 200.573 458.91 200.573C459.778 200.573 460.645 200.373 461.446 200.04C462.247 199.706 462.981 199.239 463.648 198.572C464.249 197.971 464.716 197.237 465.049 196.436C465.383 195.635 465.583 194.768 465.583 193.9C465.583 192.966 465.383 192.166 465.049 191.298C464.716 190.497 464.249 189.763 463.648 189.163C462.981 188.562 462.247 188.028 461.446 187.695C459.845 187.027 457.976 187.027 456.375 187.695C456.308 187.695 456.241 187.828 456.108 187.828C455.24 187.428 454.306 187.161 453.305 187.161H425.479C421.808 187.161 418.806 190.164 418.806 193.834C418.806 197.504 421.808 200.507 425.479 200.507L425.545 200.573Z" fill="white"></path>
<path d="M369.893 200.64H397.719C398.653 200.64 399.587 200.44 400.455 200.04C401.389 200.44 402.257 200.64 403.258 200.64C406.928 200.64 409.931 197.637 409.931 193.967C409.931 189.296 404.726 185.96 400.455 187.895C399.587 187.494 398.653 187.294 397.719 187.294H369.893C366.222 187.294 363.22 190.297 363.22 193.967C363.22 197.637 366.222 200.64 369.893 200.64Z" fill="white"></path>
<path d="M314.24 200.64H342.066C343 200.64 343.935 200.44 344.869 200.04C345.736 200.44 346.671 200.64 347.605 200.64C351.342 200.64 354.278 197.637 354.278 193.967C354.278 189.296 349.073 185.96 344.869 187.895C343.935 187.494 343 187.294 342.066 187.294H314.24C310.57 187.294 307.567 190.297 307.567 193.967C307.567 197.637 310.57 200.64 314.24 200.64Z" fill="white"></path>
<path d="M461.446 249.82C459.845 249.153 457.976 249.153 456.375 249.82C456.108 249.954 455.907 250.154 455.641 250.287C454.64 249.687 453.572 249.286 452.304 249.286H419.54C415.87 249.286 412.867 252.289 412.867 255.959C412.867 259.629 415.87 262.632 419.54 262.632H452.304C453.505 262.632 454.573 262.232 455.574 261.631C456.575 262.232 457.709 262.632 458.844 262.632C459.711 262.632 460.579 262.432 461.379 262.098C462.18 261.765 462.914 261.231 463.581 260.63C464.182 260.03 464.649 259.296 464.983 258.495C465.316 257.628 465.517 256.76 465.517 255.893C465.517 254.158 464.783 252.423 463.581 251.221C462.914 250.554 462.18 250.087 461.379 249.753L461.446 249.82Z" fill="white"></path>
<path d="M354.011 262.632H386.775C387.976 262.632 389.111 262.365 390.045 261.831C391.046 262.365 392.18 262.632 393.382 262.632C397.052 262.632 400.055 259.696 400.055 255.959C400.055 252.222 397.052 249.353 393.382 249.353C392.18 249.353 391.046 249.62 390.045 250.154C389.111 249.62 387.976 249.353 386.775 249.353H354.011C350.341 249.353 347.338 252.289 347.338 255.959C347.338 259.629 350.341 262.632 354.011 262.632Z" fill="white"></path>
<path d="M465.049 222.394C464.716 221.593 464.249 220.859 463.648 220.259C462.981 219.658 462.247 219.124 461.446 218.791C459.845 218.123 457.976 218.123 456.375 218.791C455.907 218.991 455.574 219.325 455.173 219.591C454.106 218.857 452.838 218.324 451.437 218.324H414.201C410.531 218.324 407.528 221.326 407.528 224.997C407.528 228.667 410.531 231.67 414.201 231.67H451.437C452.838 231.67 454.106 231.136 455.173 230.402C456.308 231.202 457.576 231.736 458.91 231.736C459.778 231.736 460.645 231.536 461.446 231.202C462.247 230.869 462.981 230.335 463.648 229.734C464.849 228.467 465.583 226.732 465.583 225.063C465.583 224.596 465.583 224.129 465.45 223.729C465.45 223.328 465.25 222.861 465.049 222.461V222.394Z" fill="white"></path>
<path d="M380.703 230.535C381.771 231.269 383.038 231.67 384.373 231.67C388.11 231.67 391.046 228.667 391.046 224.93C391.046 221.193 388.11 218.257 384.373 218.257C383.038 218.257 381.771 218.657 380.703 219.391C379.568 218.657 378.301 218.257 376.966 218.257H339.731C335.994 218.257 332.991 221.26 332.991 224.93C332.991 228.6 335.994 231.67 339.731 231.67H376.966C378.301 231.67 379.568 231.269 380.703 230.535Z" fill="white"></path>
<path d="M461.446 311.879C459.845 311.212 458.11 311.278 456.575 311.879C455.841 311.612 455.04 311.412 454.172 311.412H430.35C426.68 311.412 423.677 314.415 423.677 318.085C423.677 321.755 426.68 324.758 430.35 324.758H454.172C455.04 324.758 455.841 324.558 456.575 324.291C457.309 324.558 458.109 324.758 458.977 324.758C459.844 324.758 460.712 324.558 461.513 324.224C462.313 323.89 463.048 323.423 463.715 322.823C464.315 322.155 464.783 321.488 465.116 320.621C465.45 319.82 465.65 318.952 465.65 318.085C465.65 316.35 464.916 314.615 463.715 313.347C463.048 312.746 462.313 312.279 461.513 311.946L461.446 311.879Z" fill="white"></path>
<path d="M408.863 311.812C408.129 311.479 407.328 311.345 406.461 311.345H382.705C378.968 311.345 375.965 314.348 375.965 318.018C375.965 321.688 378.968 324.691 382.705 324.691H406.461C407.328 324.691 408.129 324.558 408.863 324.224C409.664 324.558 410.464 324.691 411.265 324.691C414.935 324.691 417.938 321.688 417.938 318.018C417.938 313.547 413.134 310.144 408.863 311.812Z" fill="white"></path>
<path d="M463.648 282.251C462.981 281.65 462.247 281.183 461.446 280.85C459.711 280.115 457.776 280.249 456.108 281.05C455.24 280.649 454.306 280.382 453.238 280.382H424.945C421.275 280.382 418.272 283.385 418.272 287.055C418.272 290.726 421.275 293.728 424.945 293.728H453.238C454.239 293.728 455.24 293.461 456.108 293.061C456.975 293.461 457.976 293.728 458.91 293.728C459.778 293.728 460.645 293.595 461.446 293.261C462.247 292.928 462.981 292.394 463.648 291.793C464.849 290.525 465.583 288.79 465.583 287.055C465.583 286.188 465.383 285.32 465.049 284.52C464.716 283.719 464.249 282.985 463.648 282.318V282.251Z" fill="white"></path>
<path d="M368.358 293.662H396.651C397.652 293.662 398.586 293.461 399.454 293.061C400.388 293.461 401.322 293.662 402.323 293.662C405.994 293.662 408.996 290.659 408.996 286.989C408.996 282.318 403.725 278.981 399.454 280.983C398.586 280.516 397.652 280.316 396.651 280.316H368.358C364.688 280.316 361.685 283.319 361.685 286.989C361.685 290.659 364.688 293.662 368.358 293.662Z" fill="white"></path>
</g>
</svg><style>@media (prefers-color-scheme: light) { :root { filter: none; } }
@media (prefers-color-scheme: dark) { :root { filter: none; } }
</style></svg>