<svg xmlns="http://www.w3.org/2000/svg" version="1.1" xmlns:xlink="http://www.w3.org/1999/xlink" xmlns:svgjs="http://svgjs.dev/svgjs" width="512" height="512"><svg width="512" height="512" viewBox="0 0 512 512" fill="none" xmlns="http://www.w3.org/2000/svg">
<rect width="512" height="512" rx="16" fill="black"></rect>
<g style="mix-blend-mode:difference">
<path d="M261.665 135.875C259.44 132.042 253.134 132.042 250.97 135.875L185.807 248.703C183.52 248.703 181.294 250.002 180.243 252.227C179.378 254.082 179.625 256.184 180.552 257.853L115.637 370.311C114.525 372.227 114.525 374.577 115.637 376.493C116.75 378.41 118.79 379.584 121.016 379.584H391.681C393.907 379.584 395.947 378.41 397.06 376.493C398.172 374.577 398.172 372.227 397.06 370.311L261.665 135.875ZM198.543 251.424L288.311 206.849L344.509 304.221L190.073 266.076L198.481 251.485L198.543 251.424ZM256.287 151.331L282.129 196.091L209.671 232.073L256.287 151.331ZM131.65 367.22L183.644 277.142L353.103 318.997L380.923 367.158H131.65V367.22Z" fill="white"></path>
<path d="M122.747 231.825L127.755 234.237L132.824 236.648C133.69 237.08 134.555 237.266 135.483 237.266C137.832 237.266 139.996 235.968 141.109 233.742C142.593 230.651 141.232 226.941 138.141 225.519L133.072 223.108L128.064 220.759C124.973 219.275 121.325 220.635 119.841 223.726C118.358 226.818 119.718 230.465 122.809 231.949L122.747 231.825Z" fill="white"></path>
<path d="M107.848 211.114L102.84 208.703L97.8321 206.354C94.7409 204.87 91.0315 206.23 89.6096 209.322C88.1258 212.413 89.4859 216.122 92.5771 217.544L97.6467 219.955L102.654 222.305C103.52 222.737 104.385 222.923 105.313 222.923C107.662 222.923 109.826 221.624 110.877 219.399C112.361 216.308 111.001 212.66 107.909 211.176L107.848 211.114Z" fill="white"></path>
<path d="M77.6157 196.833L73.1644 194.731C73.1644 194.731 72.8553 194.607 72.6698 194.484C72.6698 194.484 72.6698 194.484 72.608 194.484L69.8259 193.186C66.7347 191.702 63.0871 193.062 61.6034 196.091C60.1196 199.182 61.4797 202.892 64.5091 204.314L67.2911 205.612L72.3607 208.023C73.2262 208.456 74.0918 208.641 75.0191 208.641C77.3684 208.641 79.5323 207.343 80.6451 205.118C82.1289 202.026 80.7687 198.317 77.6776 196.895L77.6157 196.833Z" fill="white"></path>
<path d="M152.979 246.169L162.994 250.991C163.86 251.424 164.726 251.609 165.653 251.609C168.002 251.609 170.166 250.311 171.217 248.085C172.701 244.994 171.341 241.346 168.249 239.863L158.234 235.04C155.143 233.556 151.495 234.917 150.011 238.008C148.528 241.099 149.888 244.747 152.979 246.23V246.169Z" fill="white"></path>
<path d="M414.494 204.87H440.274C441.202 204.87 442.067 204.623 442.871 204.252C442.933 204.252 442.995 204.376 443.056 204.376C443.798 204.685 444.602 204.87 445.406 204.87C446.209 204.87 447.013 204.685 447.755 204.376C448.497 204.067 449.177 203.634 449.795 203.016C450.352 202.459 450.784 201.779 451.094 201.037C451.403 200.295 451.588 199.492 451.588 198.688C451.588 197.822 451.403 197.08 451.094 196.277C450.784 195.535 450.352 194.855 449.795 194.298C449.177 193.742 448.497 193.247 447.755 192.938C446.271 192.32 444.54 192.32 443.056 192.938C442.995 192.938 442.933 193.062 442.809 193.062C442.005 192.691 441.14 192.444 440.213 192.444H414.432C411.032 192.444 408.25 195.226 408.25 198.626C408.25 202.026 411.032 204.808 414.432 204.808L414.494 204.87Z" fill="white"></path>
<path d="M362.933 204.932H388.713C389.579 204.932 390.444 204.747 391.248 204.376C392.114 204.747 392.917 204.932 393.845 204.932C397.245 204.932 400.027 202.15 400.027 198.75C400.027 194.422 395.205 191.331 391.248 193.124C390.444 192.753 389.579 192.567 388.713 192.567H362.933C359.532 192.567 356.75 195.349 356.75 198.75C356.75 202.15 359.532 204.932 362.933 204.932Z" fill="white"></path>
<path d="M311.372 204.932H337.152C338.018 204.932 338.883 204.747 339.749 204.376C340.553 204.747 341.418 204.932 342.284 204.932C345.746 204.932 348.466 202.15 348.466 198.75C348.466 194.422 343.644 191.331 339.749 193.124C338.883 192.753 338.018 192.567 337.152 192.567H311.372C307.971 192.567 305.189 195.349 305.189 198.75C305.189 202.15 307.971 204.932 311.372 204.932Z" fill="white"></path>
<path d="M447.755 250.496C446.271 249.878 444.54 249.878 443.056 250.496C442.809 250.62 442.624 250.805 442.376 250.929C441.449 250.373 440.46 250.002 439.285 250.002H408.93C405.529 250.002 402.747 252.784 402.747 256.184C402.747 259.584 405.529 262.366 408.93 262.366H439.285C440.398 262.366 441.387 261.995 442.315 261.439C443.242 261.995 444.293 262.366 445.344 262.366C446.148 262.366 446.951 262.181 447.693 261.872C448.435 261.563 449.115 261.068 449.733 260.512C450.29 259.955 450.723 259.275 451.032 258.533C451.341 257.73 451.526 256.926 451.526 256.122C451.526 254.515 450.846 252.907 449.733 251.795C449.115 251.176 448.435 250.743 447.693 250.434L447.755 250.496Z" fill="white"></path>
<path d="M348.219 262.366H378.574C379.687 262.366 380.738 262.119 381.604 261.624C382.531 262.119 383.582 262.366 384.695 262.366C388.095 262.366 390.877 259.646 390.877 256.184C390.877 252.722 388.095 250.063 384.695 250.063C383.582 250.063 382.531 250.311 381.604 250.805C380.738 250.311 379.687 250.063 378.574 250.063H348.219C344.818 250.063 342.036 252.784 342.036 256.184C342.036 259.584 344.818 262.366 348.219 262.366Z" fill="white"></path>
<path d="M451.094 225.087C450.784 224.345 450.352 223.665 449.795 223.108C449.177 222.552 448.497 222.057 447.755 221.748C446.271 221.13 444.54 221.13 443.056 221.748C442.624 221.934 442.315 222.243 441.944 222.49C440.954 221.81 439.78 221.315 438.481 221.315H403.984C400.583 221.315 397.801 224.097 397.801 227.498C397.801 230.898 400.583 233.68 403.984 233.68H438.481C439.78 233.68 440.954 233.186 441.944 232.505C442.995 233.247 444.169 233.742 445.406 233.742C446.209 233.742 447.013 233.556 447.755 233.247C448.497 232.938 449.177 232.444 449.795 231.887C450.908 230.713 451.588 229.105 451.588 227.56C451.588 227.127 451.588 226.694 451.464 226.323C451.464 225.952 451.279 225.519 451.094 225.148V225.087Z" fill="white"></path>
<path d="M372.948 232.629C373.937 233.309 375.112 233.68 376.349 233.68C379.811 233.68 382.531 230.898 382.531 227.436C382.531 223.974 379.811 221.254 376.349 221.254C375.112 221.254 373.937 221.624 372.948 222.305C371.897 221.624 370.723 221.254 369.486 221.254H334.988C331.526 221.254 328.744 224.036 328.744 227.436C328.744 230.836 331.526 233.68 334.988 233.68H369.486C370.723 233.68 371.897 233.309 372.948 232.629Z" fill="white"></path>
<path d="M447.755 307.992C446.271 307.374 444.664 307.436 443.242 307.992C442.562 307.745 441.82 307.56 441.016 307.56H418.945C415.545 307.56 412.763 310.342 412.763 313.742C412.763 317.142 415.545 319.924 418.945 319.924H441.016C441.82 319.924 442.562 319.739 443.242 319.492C443.922 319.739 444.664 319.924 445.468 319.924C446.271 319.924 447.075 319.739 447.817 319.43C448.559 319.121 449.239 318.688 449.857 318.131C450.414 317.513 450.846 316.895 451.155 316.091C451.464 315.349 451.65 314.546 451.65 313.742C451.65 312.135 450.97 310.527 449.857 309.353C449.239 308.796 448.559 308.363 447.817 308.054L447.755 307.992Z" fill="white"></path>
<path d="M399.038 307.931C398.358 307.621 397.616 307.498 396.812 307.498H374.803C371.341 307.498 368.559 310.28 368.559 313.68C368.559 317.08 371.341 319.863 374.803 319.863H396.812C397.616 319.863 398.358 319.739 399.038 319.43C399.78 319.739 400.522 319.863 401.264 319.863C404.664 319.863 407.446 317.08 407.446 313.68C407.446 309.538 402.995 306.385 399.038 307.931Z" fill="white"></path>
<path d="M449.795 280.543C449.177 279.986 448.497 279.553 447.755 279.244C446.148 278.564 444.355 278.688 442.809 279.43C442.005 279.059 441.14 278.812 440.151 278.812H413.937C410.537 278.812 407.755 281.594 407.755 284.994C407.755 288.394 410.537 291.176 413.937 291.176H440.151C441.078 291.176 442.005 290.929 442.809 290.558C443.613 290.929 444.54 291.176 445.406 291.176C446.209 291.176 447.013 291.053 447.755 290.744C448.497 290.434 449.177 289.94 449.795 289.383C450.908 288.209 451.588 286.601 451.588 284.994C451.588 284.19 451.403 283.387 451.094 282.645C450.784 281.903 450.352 281.223 449.795 280.604V280.543Z" fill="white"></path>
<path d="M361.511 291.114H387.724C388.651 291.114 389.517 290.929 390.321 290.558C391.186 290.929 392.052 291.114 392.979 291.114C396.379 291.114 399.162 288.332 399.162 284.932C399.162 280.604 394.277 277.513 390.321 279.368C389.517 278.935 388.651 278.75 387.724 278.75H361.511C358.111 278.75 355.328 281.532 355.328 284.932C355.328 288.332 358.111 291.114 361.511 291.114Z" fill="white"></path>
</g>
</svg><style>@media (prefers-color-scheme: light) { :root { filter: none; } }
@media (prefers-color-scheme: dark) { :root { filter: none; } }
</style></svg>